<svg width="24" height="24" viewBox="0 0 24 24" fill="none" xmlns="http://www.w3.org/2000/svg">
<path d="M19.5 10.4848C19.5 16.5455 12 22 12 22C12 22 4.5 16.5455 4.5 10.4848C4.5 4.42424 7.85786 2 12 2C16.1421 2 19.5 4.42424 19.5 10.4848Z" fill="#4A3AFF"/>
<path d="M9.09244 8.91586C8.85581 8.91586 8.65625 8.82668 8.49375 8.64834C8.33125 8.47 8.25 8.25167 8.25 7.99337C8.25 7.73507 8.33169 7.51722 8.49506 7.33983C8.65844 7.16244 8.85844 7.07375 9.09506 7.07375C9.33169 7.07375 9.53125 7.16292 9.69375 7.34127C9.85625 7.51961 9.9375 7.73793 9.9375 7.99624C9.9375 8.25454 9.85581 8.47239 9.69244 8.64977C9.52906 8.82716 9.32906 8.91586 9.09244 8.91586ZM10.8268 7.17609C10.5902 7.17609 10.3906 7.08692 10.2281 6.90857C10.0656 6.73023 9.98438 6.51191 9.98438 6.2536C9.98438 5.9953 10.0661 5.77745 10.2294 5.60007C10.3928 5.42268 10.5928 5.33398 10.8294 5.33398C11.0661 5.33398 11.2656 5.42316 11.4281 5.6015C11.5906 5.77984 11.6719 5.99817 11.6719 6.25647C11.6719 6.51477 11.5902 6.73262 11.4268 6.91001C11.2634 7.0874 11.0634 7.17609 10.8268 7.17609ZM13.1706 7.17609C12.9339 7.17609 12.7344 7.08692 12.5719 6.90857C12.4094 6.73023 12.3281 6.51191 12.3281 6.2536C12.3281 5.9953 12.4098 5.77745 12.5732 5.60007C12.7366 5.42268 12.9366 5.33398 13.1732 5.33398C13.4098 5.33398 13.6094 5.42316 13.7719 5.6015C13.9344 5.77984 14.0156 5.99817 14.0156 6.25647C14.0156 6.51477 13.9339 6.73262 13.7706 6.91001C13.6072 7.0874 13.4072 7.17609 13.1706 7.17609ZM14.9049 8.91586C14.6683 8.91586 14.4688 8.82668 14.3062 8.64834C14.1437 8.47 14.0625 8.25167 14.0625 7.99337C14.0625 7.73507 14.1442 7.51722 14.3076 7.33983C14.4709 7.16244 14.6709 7.07375 14.9076 7.07375C15.1442 7.07375 15.3438 7.16292 15.5063 7.34127C15.6688 7.51961 15.75 7.73793 15.75 7.99624C15.75 8.25454 15.6683 8.47239 15.5049 8.64977C15.3416 8.82716 15.1416 8.91586 14.9049 8.91586ZM9.99375 13.1118C9.73125 13.1118 9.51562 13.0042 9.34687 12.7891C9.17812 12.574 9.09375 12.32 9.09375 12.027C9.09375 11.7404 9.17344 11.4863 9.33281 11.2645C9.49219 11.0428 9.6625 10.8296 9.84375 10.6249C9.98125 10.4748 10.1094 10.3162 10.2281 10.149C10.3469 9.98189 10.4594 9.80962 10.5656 9.63223C10.7469 9.33203 10.95 9.05231 11.175 8.79305C11.4 8.53379 11.675 8.40416 12 8.40416C12.325 8.40416 12.6016 8.53379 12.8297 8.79305C13.0578 9.05231 13.2625 9.33545 13.4438 9.64246C13.55 9.81985 13.6609 9.99042 13.7766 10.1542C13.8922 10.3179 14.0188 10.4748 14.1562 10.6249C14.3375 10.8296 14.5078 11.0428 14.6672 11.2645C14.8266 11.4863 14.9062 11.7404 14.9062 12.027C14.9062 12.32 14.8219 12.574 14.6531 12.7891C14.4844 13.0042 14.2688 13.1118 14.0063 13.1118C13.6688 13.1118 13.3344 13.0811 13.0031 13.0197C12.6719 12.9583 12.3375 12.9276 12 12.9276C11.6625 12.9276 11.3281 12.9583 10.9969 13.0197C10.6656 13.0811 10.3312 13.1118 9.99375 13.1118Z" fill="white"/>
</svg>
