<svg width="1245" height="370" viewBox="0 0 1245 370" fill="none" xmlns="http://www.w3.org/2000/svg">
<path d="M12.037 326.882C19.4532 325.722 29.5298 325.397 37.3107 325.395C39.7445 325.393 38.6923 326.889 40.4055 326.94C40.4114 326.94 40.4173 326.941 40.4232 326.941C43.4489 327.07 45.9361 325.997 48.7723 326.064C49.7243 326.087 49.0179 328.419 50.0171 328.391C55.4877 328.205 60.109 326.277 64.7016 324.79C70.5213 322.889 75.2859 320.271 79.2864 316.516C81.3052 314.626 83.1809 312.397 85.1947 309.553C87.2833 306.69 89.2205 303.202 93.1394 298.363C103.38 286.399 113.601 274.416 124.126 262.333C129.789 255.839 137.237 248.873 143.463 241.711C144.8 240.177 146.115 238.469 147.315 236.718C148.03 235.672 146.094 235.078 146.124 234.794C146.646 230.364 148.823 233.707 150.786 232.072C156.481 227.287 161.962 221.402 166.856 215.609C168.67 213.458 170.357 211.333 171.947 209.227C174.413 205.953 168.894 206.567 173.207 204.848C173.502 204.728 174.311 206.826 175.211 206.129C177.263 204.531 180.194 200.702 181.637 199.328C184.413 196.7 184.811 196.228 187.24 193.568C190.553 189.969 195.244 186.29 198.448 182.125C199.141 181.217 196.622 180.937 197.578 179.379C198.539 177.816 201.855 174.463 203.288 173.615C204.721 172.767 205.448 174.353 205.91 174.395C209.766 174.8 210.226 167.889 210.552 167.348C211.265 166.256 212.017 165.178 212.541 164.373C219.907 154.278 228.417 148.901 236.215 141.236C242.305 135.313 248.363 128.638 254.306 123.022C254.84 122.517 255.383 122.015 255.917 121.533C263.898 114.359 271.417 109.457 279.078 102.807C279.889 102.108 277.385 101.063 278.374 100.206C283.806 95.4965 289.303 90.9888 294.887 86.6908C300.315 82.5005 306.023 78.5972 312.088 75.178C313.359 74.4648 313.085 77.2649 314.42 76.6634C322.516 72.8693 336.22 69.4155 335.69 58.9983C340.696 56.3846 346.491 53.2086 351.61 51.9819C351.651 51.9709 351.692 51.9601 351.733 51.9494C355.323 51.0375 353.701 54.7989 356.783 51.702C357.489 51.0123 355.357 49.9525 356.521 49.0391C361.467 45.1726 367.783 42.7495 372.747 39.3723C373.762 38.677 372.727 37.1643 372.905 36.7282C374.504 33.121 380.615 35.2742 381.67 35.1862C387.093 34.649 391.031 33.2293 395.101 31.5743C397.322 30.6816 399.405 29.8652 401.727 29.0969C403.329 28.5717 400.66 26.9114 402.185 26.3217C410.079 23.3217 418.353 20.9922 426.432 19.68C428.224 19.3971 427.237 21.851 428.122 21.8178C432.024 21.6481 431.729 17.6659 435.459 17.4448C436.238 17.3956 436.326 19.2132 436.514 19.3603C439.475 21.6673 440.083 16.9905 440.596 16.742C442.978 15.5513 445.217 15.2201 447.456 15.1432C451.418 14.9879 455.221 15.6967 459.443 14.273C460.245 14.0003 457.871 12.2604 460.169 11.6269C475.498 7.43119 491.94 5.57218 507.339 5.37289C509.732 5.34232 508.262 7.22633 508.436 7.41268C510.977 9.99503 512.016 6.71368 512.781 5.78054C512.874 5.66652 512.961 5.58788 513.044 5.55971C519.063 3.6342 525.109 6.70377 528.864 1.20978C538.088 1.07511 547.205 0.684653 556.452 0.647284C565.825 0.68733 574.387 0.691177 584.823 2.71902C594.092 5.13189 600.825 9.56104 607.188 14.4129C607.453 14.6142 605.934 16.2269 606.465 16.6193C612.251 20.9672 613.038 18.3926 617.854 16.8825C618.364 16.7734 618.918 16.6826 619.524 16.6202C621.425 16.45 622.642 22.967 622.677 23.453C623.075 25.3036 620.157 27.184 620.387 27.6438C622.133 31.2802 627.793 22.3472 631.951 25.5815C632.065 25.6943 630.335 26.7904 630.55 27.2071C631.205 28.5008 632.695 28.7346 633.24 30.0716C634.465 33.153 631.775 37.585 636.925 38.2835C637.575 38.36 641.051 33.446 643.965 36.5419C644.623 37.2408 646.691 39.1747 648.454 40.7611C650.042 42.1781 651.457 43.5619 652.038 44.3157C653.389 46.0766 650.98 46.4757 651.041 46.6438C653.547 52.4443 651.2 51.7121 650.659 56.3888C650.094 61.0452 655.736 54.0728 657.263 54.1607C658.792 54.2575 660.292 58.6242 660.522 59.8408C660.752 61.0642 658.998 61.0838 659.367 62.0015C661.923 68.0671 664.292 60.5211 666.633 60.7324C667.748 60.8096 668.541 61.1357 669.127 61.6312C671.918 63.9885 671.336 69.2431 673.526 71.9109C674.27 72.8184 674.579 71.0632 675.444 71.6553C678.846 74.0154 679.245 77.2027 683.939 78.9352C684.708 79.2214 690.143 78.7966 689.956 82.5701C689.926 83.1117 688.096 83.6842 689.131 85.1182C690.671 87.2616 693.91 90.6244 696.365 92.0143C698.178 93.0399 698.188 89.4569 699.573 91.7616C700.193 92.7882 697.55 92.6259 698.807 94.4562C699.904 96.0628 703.319 98.9146 705.267 100.413C705.538 100.623 705.78 100.808 705.983 100.963C707.651 102.235 708.054 99.9084 708.273 99.9064C709.574 99.9291 713.333 101.704 713.606 101.932C725.904 111.589 735.258 123.453 747.164 131.604C748.944 132.759 750.805 133.852 752.723 134.865C753.909 135.493 754.289 133.17 754.482 133.247C758.865 134.848 752.769 137.922 754.558 141.257C756.421 137.222 757.65 138.9 760.717 140.123C762.192 140.704 762.31 138.795 762.522 138.715C765.827 137.625 765.564 141.33 765.594 142.137C765.701 145.099 768.631 143.318 768.73 145.303C768.843 147.281 765.503 148.273 768.286 149.774C769.822 148.814 769.775 144.071 772.181 144.629C780.909 146.674 793.697 156.541 800.339 159.929C800.552 160.041 800.76 160.146 800.961 160.244C807.198 163.196 809.483 163.45 813.216 165.044C820.074 167.666 818.174 164.095 822.534 163.336C822.551 163.334 822.568 163.331 822.585 163.329C827.697 162.588 824.246 169.751 824.714 171.448C825.142 173.147 826.106 171.603 826.796 172.611C827.472 173.618 825.548 174.433 827.4 175.063C829.232 175.679 834.975 173.782 835.976 172.246C838.067 168.978 836.398 164.837 841.23 167.074C841.507 167.204 840.205 168.983 841.284 169.384C846.21 171.178 851.282 172.414 856.426 173.376C860.234 174.093 864.057 174.669 867.858 175.312C869.09 175.52 867.951 177.71 868.676 177.855C876.287 179.259 873.59 175.517 877.386 171.235C876.748 176.754 879.207 180.11 885.101 179.551C888.62 179.183 887.73 176.854 889.696 174.877C890.269 174.285 892.939 175.533 893.185 174.34C893.965 170.438 891.076 166.825 896.867 167.347C897.127 167.372 896.767 169.515 897.636 169.456C901.404 169.184 902.542 167.269 904.463 165.465C905.485 164.544 906.735 163.639 908.67 162.921C913.239 161.233 922.198 161.021 927.608 159.723C929.333 165.667 933.959 162.727 934.667 158.012C938.146 157.074 941.759 155.624 945.243 155.063C946.441 154.868 946.273 156.817 946.478 156.951C949.662 159.074 949.8 154.633 950.477 154.226C955.38 151.416 960.3 150.71 964.95 148.9C967.392 147.95 969.72 146.741 971.973 144.801C972.211 144.597 971.151 140.408 974.29 142.604C974.493 142.761 972.642 145.512 976.281 144.352C979.924 143.19 987.454 142.951 991.819 139.328C992.852 138.46 994.81 134.091 998.156 135.826C998.604 136.064 998.645 137.352 999.339 137.839C1001.56 139.387 1001 134.993 1004 137.871C1006.98 140.753 1011.58 142.119 1015.83 138.015C1015.97 137.888 1016.08 134.223 1017.67 133.747C1020.25 132.974 1024.08 132.458 1026.69 131.473C1027.95 130.987 1026.37 129.296 1026.58 129.178C1026.78 129.064 1027.01 128.937 1027.19 128.834C1034.79 124.649 1041.33 123.956 1050.35 121.293C1052.05 120.795 1055.76 116.239 1059.79 117.207C1064.17 118.303 1064.24 129.367 1071.2 124.313C1071.24 124.281 1071.28 124.246 1071.33 124.208C1074.7 121.651 1073.92 108.138 1082.14 112.19C1086.96 109.459 1092.09 107.982 1097.22 106.723C1103.34 105.227 1109.4 104.333 1115.7 102.185C1116.21 102.009 1117.51 98.1126 1118.84 98.0371C1120.78 97.9338 1121.98 99.59 1123.34 99.6156C1129.07 99.7753 1134.31 98.3162 1139.81 98.5569C1141.9 98.6391 1141.17 100.442 1143.68 100.521C1145.94 100.576 1147.46 98.6457 1150.19 98.8948C1150.49 98.9208 1150.81 98.9684 1151.15 99.0405C1153.63 99.6325 1157.71 103.489 1161.12 103.058C1159.9 98.4624 1162.09 97.8455 1165.78 95.6156C1166.49 95.1904 1165.27 93.7816 1165.59 93.4965C1166.91 92.2927 1168.64 93.321 1169.89 92.1236C1170.21 91.8332 1169.92 90.2323 1170.16 89.9064C1172.27 87.0395 1177.06 90.0692 1177.8 90.6336C1180.77 92.7098 1181.77 90.4949 1183.94 91.2692C1186.03 92.0615 1183.11 93.482 1185.51 93.8804C1186.48 94.037 1187.41 94.1516 1188.45 94.2284L1188.39 94.2307C1192.74 94.7116 1197.68 94.4952 1201.74 94.5157C1203.74 94.5163 1202.36 92.3566 1202.64 92.3062C1206.78 91.7161 1210.98 93.9944 1213.24 89.6461C1216.21 100.811 1215.73 88.5429 1221.66 90.719C1222.13 90.8947 1222.78 96.1801 1221 96.9773C1219.21 97.7737 1216.47 96.1456 1214 97.3781C1213.42 97.6677 1210.09 102.655 1209.63 102.959C1206.06 105.337 1205.48 97.434 1205.29 97.0012C1203.09 92.332 1199.02 97.7158 1197.95 98.0984C1194.51 99.321 1191.43 99.1776 1188.5 99.4336L1188.74 99.4246C1187.49 99.5761 1186.32 99.8074 1185.17 100.262C1182.64 101.251 1182.92 106.436 1181.01 106.485C1174.84 106.716 1170.99 100.085 1166.7 107.67C1165.73 109.33 1168.79 114.315 1162.75 111.457C1162.37 111.26 1157.46 108.568 1154.74 111.647C1154.4 112.036 1154.69 113.663 1154.14 113.889C1153.23 114.249 1152.33 114.441 1151.45 114.527C1149.42 114.734 1147.73 114.174 1145.51 114.7C1142.57 115.393 1139.25 116.307 1136.3 115.748C1134.52 115.411 1132.28 112.355 1131.44 111.618C1129.03 109.484 1126.71 113.132 1125.18 110.589C1123.57 108.043 1126.26 103.851 1122.19 102.412C1122.36 106.698 1122.37 111.11 1122.5 115.425C1115.14 115.858 1107.89 115.936 1100.83 118.191C1100.41 118.324 1100 118.459 1099.6 118.598C1098.61 118.945 1100.33 120.813 1099.31 121.237C1095.01 123.025 1090.71 122.833 1086.35 125.259C1082.98 127.126 1079.76 131.158 1075.04 133.421C1074.77 133.205 1074.49 133.015 1074.21 132.85C1070.62 129.913 1065.87 133.172 1061.86 134.251C1060.36 134.656 1060 133.394 1058.81 133.391C1054.35 133.419 1057.75 136.757 1056.93 137.806C1053.43 142.3 1049.43 133.329 1044.09 135.728C1043.8 135.853 1042.26 142.116 1041.9 142.615C1039.63 145.827 1040.71 141.132 1038.64 141.554C1036.54 141.984 1034.7 142.126 1032.87 142.707C1030.82 143.399 1029.36 144.033 1027.59 145.365C1026.44 146.241 1024.48 150.34 1021.26 148.757C1020.84 148.552 1020.46 146.855 1020.18 146.843C1015.05 146.779 1016.66 151.97 1014.63 154.592C1012.61 157.211 1007.4 155.02 1006.22 154.282C1003.17 152.367 1007.49 152.586 1007.5 152.293C1007.82 148.737 1005.05 150.271 1002.72 150.775C1000.67 145.849 997.626 147.235 1000.31 151.325C1000.62 151.766 1002.18 150.705 1002.72 150.775C1002.45 156.393 999.259 158.201 993.852 154.923C991.299 153.395 992.116 150.27 987.03 153.11C984.724 154.4 986.916 157.512 985.09 159.229C981.491 162.633 975.306 162.4 970.546 163.883C969.827 164.108 969.139 164.368 968.496 164.679C966.678 165.559 969.211 166.765 967.989 167.431C964.74 169.205 961.197 168.876 957.992 170.817C957.702 170.996 959.166 172.71 958.094 173.113C949.973 176.203 942.38 177.292 933.763 179.946C929.6 181.236 922.476 184.591 918.077 185.62C915.723 186.179 913.133 186.532 910.498 186.819C903.953 187.657 897.343 187.624 892.488 188.855C887.895 189.984 889.164 191.903 887.279 193.568C883.535 196.818 876.087 192.221 875.207 191.447C875.187 191.433 879.218 190.758 877.006 189.778C875.677 187.585 875.259 191.435 875.207 191.447C874.573 191.021 866.487 190.569 864.874 190.854C863.996 191.041 864.406 193.049 863.942 193.108C860.764 193.49 857.562 193.669 854.359 193.642C846.454 193.599 838.7 192.196 832.049 190.293C831.887 190.222 832.542 188.078 832.157 187.939C827.088 186.062 823.432 187.898 819.315 189.019C818.993 189.072 818.667 189.119 818.338 189.162C812.173 189.949 807.541 188.213 805.383 183.628C801.114 182.951 795.954 179.251 793.24 176.911C793.147 176.833 793.055 176.762 792.965 176.697C790.583 174.929 788.537 178.429 788.25 178.392C779.19 177.201 775.933 172.75 768.4 168.354C764.819 166.258 757.322 162.868 753.174 161.032C749.884 159.593 748.538 157.633 745.356 156.494C744.926 156.338 744.326 158.228 744.17 158.221C739.772 158.274 743.754 155.158 743.537 154.042C742.754 149.993 742.208 147.77 737.461 146.328C737.425 146.316 737.389 146.304 737.352 146.292C736.135 145.902 729.286 149.383 727.33 148.402C724.822 147.144 727.119 145.832 724.55 144.592C724.338 144.487 723.443 145.7 722.147 144.597C716.135 139.491 710.448 133.618 704.412 128.84C703.593 128.183 703.113 130.877 701.908 129.962C697.766 126.814 693.514 123.333 689.752 119.738C688.203 118.285 686.747 116.798 685.415 115.296C684.194 113.906 686.146 113.364 686.162 112.73C686.251 108.894 680.86 109.993 680.376 109.68C668.936 102.515 664.28 92.4705 654.011 85.9346C653.7 85.7472 651.36 85.7469 649.7 85.1266C647.783 84.111 646.382 82.6987 646.647 80.6021C646.654 80.2532 647.46 75.4226 643.929 75.9157C643.71 75.9479 643.387 78.5622 641.551 76.5031C639.721 74.4476 635.789 72.5727 634.972 68.6149C634.722 67.3769 635.637 62.6142 631.235 63.0808C631.133 63.0967 630.058 63.4089 628.82 63.6429C625.91 63.5791 622.364 62.9979 623.697 59.7151C624.048 58.8988 627.869 55.1064 623.088 54.4287C622.181 54.3174 622.342 56.0995 620.417 55.3426C617.494 54.2147 615.725 50.7069 611.864 50.7023C611.154 50.6742 607.323 52.315 607.651 49.1748C607.691 48.6749 609.119 47.4766 608.515 46.8181C607.181 45.3656 605.559 44.4075 603.982 43.6176C600.616 41.8884 598.016 40.4618 595.729 38.4914C594.241 37.2054 596.464 35.0943 595.059 33.4822C593.661 31.8669 590.468 29.4647 588.207 29.9306C585.99 30.4147 585.898 35.3976 583.462 34.7867C581.309 34.2753 579.411 33.8521 578.611 33.7208C579.129 33.8155 577.45 33.5423 576.476 33.4079C575.354 33.2464 574.161 33.0768 572.925 32.9043C570.474 32.5609 567.889 32.2082 565.306 31.8905C560.113 31.2548 554.762 30.7504 549.372 30.7493C547.347 30.7537 549.053 32.3492 546.101 32.4907C538.189 32.8611 526.242 34.6307 516.391 35.028C512.403 35.1857 508.764 35.0691 505.851 34.4651C497.567 32.7683 507.22 29.2576 501.015 28.968C497.99 28.8429 495.643 34.6394 494.98 34.9133C488.457 37.6599 483.386 36.1092 477.556 37.9752C476.347 38.3656 477.973 40.2694 476.954 40.5765C473.497 41.6428 469.623 41.4811 466.378 42.4346C464.936 42.8661 465.588 44.4221 464.222 44.6267C461.447 45.0644 458.879 45.1905 455.986 44.8541C455.44 44.808 454.888 44.7459 454.326 44.6671C453.981 44.6187 455.473 42.0328 452.903 42.6932C448.725 43.7739 443.154 43.797 438.87 46.7332C437.596 47.6129 438.636 51.2724 434.867 49.6616C434.076 49.3277 433.562 44.7048 431.199 49.5501C430.784 50.3592 426.514 57.2403 422.637 54.8673C421.633 54.2357 418.554 51.287 417.082 52.3786C416.888 52.5395 418.403 54.1993 417.108 54.8262C413.343 56.6276 408.976 58.0093 405.847 59.5523C405.023 59.941 404.255 60.3276 403.462 60.7523C402.233 61.4183 404.912 62.6449 403.079 63.5675C398.006 66.1196 391.421 68.2315 386.464 69.7574C384.637 70.3159 385.099 68.1805 384.897 68.0624C381.547 66.1833 382.171 70.5367 381.641 71.0652C378.322 74.317 374.676 74.075 371.646 76.559C370.818 77.24 372.519 78.5305 372.435 78.7931C371.548 81.4198 370.98 77.5266 369.583 77.9615C369.377 78.0265 369.171 78.0961 368.966 78.1702C364.377 80.0922 359.971 83.0484 356.088 85.7056C354.587 86.7368 357.534 87.6486 356.179 88.5465C348.075 93.9265 340.634 98.1866 333.18 101.979C331.768 102.689 331.525 100.671 331.022 100.531C327.497 99.5512 327.121 104.696 326.741 105.455C324.991 108.923 322.972 108.514 320.704 110.716C319.646 111.751 318.574 112.78 317.43 113.855C305.984 124.528 291.782 134.915 281.64 143.328C280.042 144.649 278.498 145.932 277.008 147.185C264.068 158.192 252.64 167.088 242.003 178.915C241.266 179.746 243.758 180.545 243.162 181.267C241.696 183.015 240.269 184.705 239.137 186.124C234.427 191.778 231.058 195.1 227.212 199.263C223.467 203.274 219.813 207.277 216.329 211.525C215.631 212.371 218.36 212.709 217.289 214.126C215.1 217.046 211.924 220.385 208.944 222.639C207.501 223.732 207.654 220.669 206.229 221.798C202.891 224.446 199.78 227.71 197.2 231.187C196.102 232.676 199.667 232.103 198.102 233.924C196.656 235.617 195.209 237.324 193.752 239.04C186.433 247.583 180.316 255.589 170.581 264.998C168.786 266.616 166.929 268.229 165.004 269.817C164.129 270.539 159.918 268.285 159.067 270.701C159.946 271.672 161.122 272.643 162.136 273.591C149.405 289.893 135.441 305.335 122.14 321.341C121.58 321.904 120.168 324.03 118.543 326.642C117.976 327.542 121.069 327.244 119.949 329.046C116.645 334.415 112.067 341.273 106.111 346.824C100.195 352.43 93.0245 356.801 85.6257 359.154C84.116 359.624 82.9496 355.422 79.3346 357.768C78.7504 358.211 73.093 361.052 71.8555 362.405C71.6891 362.61 73.4319 364.177 71.5219 364.869C62.9933 367.879 54.3794 369.349 45.9869 369.789C43.4894 369.9 41.0453 369.943 38.5886 369.926C36.98 369.909 38.4223 367.56 37.2667 367.53C29.1761 367.316 20.5516 369.789 12.6111 368.312C7.29304 367.296 9.01568 363.443 6.12643 359.89C5.71657 359.393 2.51438 359.413 2.29695 357.267C1.78725 351.887 3.09068 345.953 2.36439 340.224C2.12125 339.005 -1.27708 340.363 0.690701 337.359C0.802371 337.166 3.46727 336.111 4.12115 335.065C4.57223 334.347 3.65519 332.2 4.55463 331.267C5.46253 330.333 6.60774 332.112 8.1614 330.971C9.71992 329.811 8.85568 327.388 12.037 326.882ZM782.574 166.811C781.001 163.695 777.185 170.312 780.747 170.057C780.924 170.036 782.658 166.967 782.574 166.811ZM1105.83 110.665C1101.72 108.196 1100.87 113.632 1103.78 115.506C1106.57 117.43 1107.02 111.436 1105.83 110.665ZM1140.96 105.252C1136.74 102.598 1136.04 113.41 1140.59 111.229C1140.86 111.106 1141.2 105.406 1140.96 105.252ZM18.5934 358.059C18.5604 357.962 16.2969 358.038 16.2451 358.141C15.2184 360.65 19.7641 360.496 18.5934 358.059ZM1177.55 96.2763C1176.06 94.9808 1172.7 97.2479 1174.56 98.7867C1176.01 100.014 1179.33 97.8773 1177.55 96.2763ZM671.118 74.7522C671.166 74.6412 670.047 73.4983 669.645 74.0012C668.344 75.6118 670.369 76.6502 671.118 74.7522ZM1240.14 94.2223C1235.98 94.3684 1232.64 92.6527 1230.9 90.8418C1229.41 89.2494 1229.17 87.5469 1230.81 86.7017C1231.66 86.264 1232.98 86.0559 1234.9 86.1771C1236.7 86.2954 1231.13 89.1571 1233.44 89.8855C1237.72 91.1474 1240.39 85.6607 1243.87 87.6991C1244.26 87.8403 1243.93 89.5825 1242.9 91.1833C1241.86 92.7889 1240.39 94.2275 1240.12 94.2362C1240.13 94.2316 1240.13 94.227 1240.14 94.2223ZM785.243 157.903C785.241 157.79 783.314 156.707 783.225 156.772C781.055 158.387 784.95 160.579 785.243 157.903ZM600.863 13.5186C600.865 13.2534 596.162 10.8348 595.903 10.9703C591.902 13.477 601.091 18.1971 600.863 13.5186ZM927.74 159.854C929.295 156.818 931.904 155.686 934.655 158.012C932.347 158.586 930.063 159.286 927.74 159.854Z" fill="#9F9F9F"/>
</svg>
