<svg width="63" height="62" viewBox="0 0 63 62" fill="none" xmlns="http://www.w3.org/2000/svg">
<path d="M21.8173 0.688339C15.9814 2.52812 14.413 3.48634 10.4738 7.51085C6.68052 11.382 4.78387 13.9501 2.96016 17.7063C0.735246 22.3441 0.00576467 25.717 0.00576467 31.3896C-0.0307094 35.7974 0.0787128 36.4873 1.13646 39.8219C4.05439 48.9825 9.48902 55.4984 16.7109 58.4113C28.5285 63.1641 37.6835 63.2024 46.6196 58.488C51.8354 55.7667 58.1454 46.4528 60.4433 38.2121C61.574 34.111 62.267 28.1317 61.9752 25.3337C61.6105 21.8074 59.7503 16.5181 58.036 14.1417C54.7169 9.50394 47.4221 3.98461 42.2063 2.14483C36.0786 0.0367546 26.1941 -0.653164 21.8173 0.688339ZM36.6622 5.90104C40.7108 6.70594 43.337 7.81748 46.9479 10.1555C54.6804 15.2149 57.6348 19.5461 58.2913 26.6752C58.5831 29.9715 57.7442 36.104 56.5041 39.5536C54.7898 44.383 50.6318 50.9373 47.7868 53.3903C40.2002 59.8678 27.799 60.2895 16.1638 54.5018C9.01486 50.9373 3.39785 40.7801 3.39785 31.4279C3.39785 27.4801 4.41913 22.689 5.91456 19.5844C7.81122 15.5982 12.8446 9.15898 14.0118 9.15898C14.413 9.15898 15.5802 8.69904 16.6015 8.16243C17.6227 7.62583 19.9206 6.66762 21.7808 6.05436C24.9176 4.98116 25.3552 4.94283 29.5498 5.13447C32.03 5.24945 35.2397 5.59441 36.6622 5.90104Z" fill="black"/>
<path d="M27.8355 10.5388C26.7413 10.8454 24.5893 11.727 23.0939 12.4936C14.9966 16.6714 10.2185 27.94 12.9176 36.4873C14.3036 40.9335 16.2732 43.2715 21.8173 46.9511C27.7261 50.8606 37.3553 51.7038 41.0756 48.5992C41.5862 48.2159 42.1698 47.871 42.3887 47.871C43.0452 47.871 44.03 45.9545 43.6288 45.5329C43.4099 45.3029 42.2793 44.9963 41.0756 44.8047C38.3036 44.4214 33.8902 42.275 31.9206 40.4352C28.4921 37.1772 26.3036 32.2712 26.3401 27.825C26.3401 25.5637 26.5589 24.7204 27.7261 22.0757C28.4921 20.351 29.8051 18.0129 30.6805 16.8247C32.1759 14.7933 35.2398 11.842 35.8963 11.842C36.0787 11.842 36.1151 11.5737 36.0057 11.2671C35.4951 9.96388 31.2641 9.5806 27.8355 10.5388ZM31.2276 14.065C28.6379 16.2498 27.3614 17.9362 25.72 21.3858C23.3492 26.3686 23.3127 30.738 25.6471 35.6824C28.0544 40.7418 30.717 43.6165 34.9115 45.7245L37.5011 47.0277L35.7504 47.296C33.1972 47.7176 29.4404 47.3344 27.0696 46.4528C24.7352 45.5712 20.103 42.39 18.1334 40.3202C17.4039 39.5536 16.3827 37.9822 15.8356 36.794C15.0331 34.9542 14.8872 34.111 14.8872 31.1596C14.8872 27.8634 14.9602 27.5567 16.4191 24.4138C18.7899 19.3927 22.948 15.8665 29.2215 13.5284C32.796 12.1869 33.3431 12.3403 31.2276 14.065Z" fill="black"/>
</svg>
