<svg width="32" height="32" viewBox="0 0 32 32" fill="none" xmlns="http://www.w3.org/2000/svg">
<path fill-rule="evenodd" clip-rule="evenodd" d="M19.6801 6.07959C19.1613 5.62702 17.8127 5.24531 16.0184 6.37445C10.2859 9.98588 5.29157 16.5002 3.60242 18.8613C3.4714 19.0444 3.3056 19.1999 3.11448 19.3189C2.92337 19.438 2.71068 19.5182 2.48856 19.555C2.26644 19.5918 2.03924 19.5845 1.81994 19.5336C1.60064 19.4826 1.39353 19.3889 1.21043 19.2579C1.02733 19.1269 0.871824 18.9611 0.752802 18.7699C0.633779 18.5788 0.553565 18.3661 0.51674 18.144C0.479915 17.9219 0.4872 17.6947 0.538179 17.4754C0.589158 17.2561 0.682832 17.049 0.813854 16.8659C2.52814 14.4727 7.84928 7.46702 14.1921 3.47159C16.9373 1.74359 20.0001 1.81674 21.9293 3.48988C22.8916 4.32417 23.495 5.52417 23.5019 6.88645C23.511 8.23731 22.9396 9.57674 21.8973 10.7676C18.6356 14.4979 14.327 19.5562 12.5167 22.0247C12.279 22.3493 12.263 22.5962 12.2836 22.7379C12.3064 22.8979 12.391 23.0464 12.535 23.1562C12.6333 23.2254 12.7442 23.2745 12.8615 23.3008C12.9787 23.327 13.1 23.3299 13.2184 23.3093C13.5384 23.2705 14.0413 23.0945 14.6539 22.5345C15.1704 22.059 15.7076 21.5516 16.2607 21.0327C17.9636 19.4304 19.8036 17.6956 21.6459 16.3402C23.5613 14.9322 25.8013 14.5413 27.4996 15.579C28.3476 16.0979 28.9441 16.9276 29.1499 17.9196C29.3556 18.9025 29.1613 19.9265 28.6653 20.8682C28.1327 21.8785 27.6733 22.6053 27.2596 23.259L27.2276 23.3116C26.8312 23.9193 26.4613 24.5439 26.119 25.1836C26.0423 25.3285 25.9978 25.4882 25.9883 25.6519C25.9789 25.8156 26.0047 25.9794 26.0641 26.1322C26.119 26.2693 26.1716 26.3356 26.2013 26.363C26.4116 26.379 26.5944 26.3265 26.8847 26.1025C27.2916 25.7847 27.7464 25.2476 28.4299 24.3516C28.706 23.9903 29.1143 23.7535 29.5651 23.6933C30.0158 23.633 30.472 23.7543 30.8333 24.0305C31.1946 24.3066 31.4314 24.7149 31.4916 25.1657C31.5518 25.6164 31.4306 26.0726 31.1544 26.4339C30.503 27.2864 29.7967 28.1802 28.9876 28.811C28.0916 29.5059 27.0059 29.9264 25.687 29.755C24.2401 29.5676 23.2916 28.4522 22.8733 27.3847C22.6342 26.7752 22.5288 26.1213 22.5643 25.4675C22.5998 24.8137 22.7753 24.1751 23.079 23.595C23.5133 22.763 23.9247 22.1162 24.3156 21.5013L24.3659 21.4236C24.7681 20.7859 25.1659 20.1527 25.6321 19.2705C25.8264 18.9002 25.8081 18.6876 25.7944 18.6213C25.7907 18.5968 25.7813 18.5736 25.767 18.5533C25.7527 18.5331 25.7339 18.5165 25.7121 18.5047C25.6139 18.443 24.919 18.1893 23.6779 19.1036C22.0184 20.3219 20.4024 21.8464 18.7407 23.4099C18.1586 23.9615 17.5681 24.5124 16.9693 25.0625C14.8596 26.9962 12.2904 27.2544 10.4824 25.9013C8.72242 24.5847 8.24014 22.0613 9.751 19.9996C11.6641 17.3893 16.0756 12.2167 19.3167 8.51159C19.9361 7.80302 20.0756 7.24302 20.0733 6.90702C20.0731 6.74883 20.0379 6.59264 19.9704 6.44961C19.9028 6.30658 19.8045 6.18023 19.6824 6.07959M26.2264 26.3836L26.2196 26.379C26.2241 26.379 26.2264 26.3805 26.2264 26.3836Z" fill="#222222"/>
</svg>
